<mxfile host="Electron" agent="Mozilla/5.0 (Windows NT 10.0; Win64; x64) AppleWebKit/537.36 (KHTML, like Gecko) draw.io/28.2.5 Chrome/138.0.7204.251 Electron/37.6.1 Safari/537.36" version="28.2.5">
  <diagram name="Page-1" id="0YfdygUyZtazKVSB9Esu">
    <mxGraphModel dx="780" dy="2000" grid="1" gridSize="10" guides="1" tooltips="1" connect="1" arrows="1" fold="1" page="1" pageScale="1" pageWidth="1700" pageHeight="1100" math="0" shadow="0">
      <root>
        <object label="" id="0">
          <mxCell />
        </object>
        <mxCell id="1" parent="0" />
        <mxCell id="ShgwBQbkHuVQa2O5DpQs-1" value="" style="rounded=0;whiteSpace=wrap;html=1;" vertex="1" parent="1">
          <mxGeometry x="80" y="240" width="160" height="560" as="geometry" />
        </mxCell>
        <mxCell id="ShgwBQbkHuVQa2O5DpQs-2" value="" style="rounded=0;whiteSpace=wrap;html=1;strokeColor=light-dark(#ffc561, #ededed);" vertex="1" parent="1">
          <mxGeometry x="350" y="240" width="220" height="560" as="geometry" />
        </mxCell>
        <mxCell id="ShgwBQbkHuVQa2O5DpQs-3" value="" style="rounded=0;whiteSpace=wrap;html=1;strokeColor=light-dark(#dedede, #ededed);" vertex="1" parent="1">
          <mxGeometry x="670" y="230" width="240" height="560" as="geometry" />
        </mxCell>
        <mxCell id="ShgwBQbkHuVQa2O5DpQs-4" value="dat aflow diagram" style="rounded=0;whiteSpace=wrap;html=1;fontSize=30;" vertex="1" parent="1">
          <mxGeometry x="50" y="20" width="300" height="60" as="geometry" />
        </mxCell>
        <mxCell id="ShgwBQbkHuVQa2O5DpQs-5" value="Source" style="rounded=0;whiteSpace=wrap;html=1;fontSize=24;" vertex="1" parent="1">
          <mxGeometry x="90" y="190" width="120" height="60" as="geometry" />
        </mxCell>
        <mxCell id="ShgwBQbkHuVQa2O5DpQs-29" style="edgeStyle=orthogonalEdgeStyle;rounded=0;orthogonalLoop=1;jettySize=auto;html=1;entryX=0;entryY=0.25;entryDx=0;entryDy=0;" edge="1" parent="1" source="ShgwBQbkHuVQa2O5DpQs-7" target="ShgwBQbkHuVQa2O5DpQs-2">
          <mxGeometry relative="1" as="geometry" />
        </mxCell>
        <mxCell id="ShgwBQbkHuVQa2O5DpQs-30" style="edgeStyle=orthogonalEdgeStyle;rounded=0;orthogonalLoop=1;jettySize=auto;html=1;entryX=0;entryY=0.5;entryDx=0;entryDy=0;" edge="1" parent="1" source="ShgwBQbkHuVQa2O5DpQs-7" target="ShgwBQbkHuVQa2O5DpQs-20">
          <mxGeometry relative="1" as="geometry" />
        </mxCell>
        <mxCell id="ShgwBQbkHuVQa2O5DpQs-31" style="edgeStyle=orthogonalEdgeStyle;rounded=0;orthogonalLoop=1;jettySize=auto;html=1;entryX=0;entryY=0.5;entryDx=0;entryDy=0;" edge="1" parent="1" source="ShgwBQbkHuVQa2O5DpQs-7" target="ShgwBQbkHuVQa2O5DpQs-15">
          <mxGeometry relative="1" as="geometry" />
        </mxCell>
        <mxCell id="ShgwBQbkHuVQa2O5DpQs-7" value="" style="image;aspect=fixed;html=1;points=[];align=center;fontSize=12;image=img/lib/azure2/general/Folder_Blank.svg;" vertex="1" parent="1">
          <mxGeometry x="121" y="340" width="69" height="56.00000000000001" as="geometry" />
        </mxCell>
        <mxCell id="ShgwBQbkHuVQa2O5DpQs-32" style="edgeStyle=orthogonalEdgeStyle;rounded=0;orthogonalLoop=1;jettySize=auto;html=1;" edge="1" parent="1" source="ShgwBQbkHuVQa2O5DpQs-8" target="ShgwBQbkHuVQa2O5DpQs-26">
          <mxGeometry relative="1" as="geometry" />
        </mxCell>
        <mxCell id="ShgwBQbkHuVQa2O5DpQs-33" style="edgeStyle=orthogonalEdgeStyle;rounded=0;orthogonalLoop=1;jettySize=auto;html=1;entryX=0;entryY=0.5;entryDx=0;entryDy=0;" edge="1" parent="1" source="ShgwBQbkHuVQa2O5DpQs-8" target="ShgwBQbkHuVQa2O5DpQs-27">
          <mxGeometry relative="1" as="geometry" />
        </mxCell>
        <mxCell id="ShgwBQbkHuVQa2O5DpQs-34" style="edgeStyle=orthogonalEdgeStyle;rounded=0;orthogonalLoop=1;jettySize=auto;html=1;entryX=0;entryY=0.5;entryDx=0;entryDy=0;" edge="1" parent="1" source="ShgwBQbkHuVQa2O5DpQs-8" target="ShgwBQbkHuVQa2O5DpQs-28">
          <mxGeometry relative="1" as="geometry" />
        </mxCell>
        <mxCell id="ShgwBQbkHuVQa2O5DpQs-8" value="" style="image;aspect=fixed;html=1;points=[];align=center;fontSize=12;image=img/lib/azure2/general/Folder_Blank.svg;" vertex="1" parent="1">
          <mxGeometry x="125.5" y="550" width="69" height="56.00000000000001" as="geometry" />
        </mxCell>
        <mxCell id="ShgwBQbkHuVQa2O5DpQs-9" value="erp" style="rounded=0;whiteSpace=wrap;html=1;fontSize=24;strokeColor=none;" vertex="1" parent="1">
          <mxGeometry x="105.5" y="390" width="120" height="50" as="geometry" />
        </mxCell>
        <mxCell id="ShgwBQbkHuVQa2O5DpQs-10" value="crm" style="rounded=0;whiteSpace=wrap;html=1;fontSize=24;strokeColor=none;" vertex="1" parent="1">
          <mxGeometry x="110" y="606" width="100" height="50" as="geometry" />
        </mxCell>
        <mxCell id="ShgwBQbkHuVQa2O5DpQs-11" value="Bronze" style="rounded=0;whiteSpace=wrap;html=1;fontSize=24;fillColor=#ffe6cc;strokeColor=#d79b00;" vertex="1" parent="1">
          <mxGeometry x="390" y="200" width="120" height="60" as="geometry" />
        </mxCell>
        <mxCell id="ShgwBQbkHuVQa2O5DpQs-12" value="silver" style="rounded=0;whiteSpace=wrap;html=1;fontSize=24;fillColor=#f5f5f5;fontColor=#333333;strokeColor=#666666;" vertex="1" parent="1">
          <mxGeometry x="720" y="200" width="120" height="60" as="geometry" />
        </mxCell>
        <mxCell id="ShgwBQbkHuVQa2O5DpQs-13" value="" style="rounded=0;whiteSpace=wrap;html=1;strokeColor=light-dark(#ffa200, #ededed);" vertex="1" parent="1">
          <mxGeometry x="1030" y="240" width="230" height="560" as="geometry" />
        </mxCell>
        <mxCell id="ShgwBQbkHuVQa2O5DpQs-14" value="gold" style="rounded=0;whiteSpace=wrap;html=1;fontSize=24;fillColor=#f0a30a;fontColor=#000000;strokeColor=#BD7000;" vertex="1" parent="1">
          <mxGeometry x="1085" y="200" width="120" height="60" as="geometry" />
        </mxCell>
        <mxCell id="ShgwBQbkHuVQa2O5DpQs-15" value="crm_sales_deatils" style="rounded=0;whiteSpace=wrap;html=1;fontSize=24;" vertex="1" parent="1">
          <mxGeometry x="350" y="300" width="205" height="40" as="geometry" />
        </mxCell>
        <mxCell id="ShgwBQbkHuVQa2O5DpQs-19" value="CRM_CUST_INFO" style="rounded=0;whiteSpace=wrap;html=1;fontSize=24;" vertex="1" parent="1">
          <mxGeometry x="360" y="370" width="210" height="40" as="geometry" />
        </mxCell>
        <mxCell id="ShgwBQbkHuVQa2O5DpQs-20" value="crm_prd_info" style="rounded=0;whiteSpace=wrap;html=1;fontSize=24;" vertex="1" parent="1">
          <mxGeometry x="377.5" y="450" width="150" height="40" as="geometry" />
        </mxCell>
        <mxCell id="ShgwBQbkHuVQa2O5DpQs-26" value="erp_cust_az12" style="rounded=0;whiteSpace=wrap;html=1;fontSize=24;" vertex="1" parent="1">
          <mxGeometry x="372.5" y="560" width="165" height="60" as="geometry" />
        </mxCell>
        <mxCell id="ShgwBQbkHuVQa2O5DpQs-27" value="erp_loc_a101" style="rounded=0;whiteSpace=wrap;html=1;fontSize=24;" vertex="1" parent="1">
          <mxGeometry x="377.5" y="640" width="160" height="60" as="geometry" />
        </mxCell>
        <mxCell id="ShgwBQbkHuVQa2O5DpQs-28" value="erp_px_cat_g1v2" style="rounded=0;whiteSpace=wrap;html=1;fontSize=24;" vertex="1" parent="1">
          <mxGeometry x="360" y="720" width="200" height="60" as="geometry" />
        </mxCell>
      </root>
    </mxGraphModel>
  </diagram>
</mxfile>
